<mxfile host="app.diagrams.net" modified="2023-11-01T16:51:01.979Z" agent="Mozilla/5.0 (Macintosh; Intel Mac OS X 10_15_7) AppleWebKit/537.36 (KHTML, like Gecko) Chrome/118.0.0.0 Safari/537.36" etag="SZPUrywp7tSVrQrINR9P" version="22.0.8" type="github">
  <diagram name="Page-1" id="a-lz978gGx6K19uARcvc">
    <mxGraphModel dx="1434" dy="790" grid="1" gridSize="10" guides="1" tooltips="1" connect="1" arrows="1" fold="1" page="1" pageScale="1" pageWidth="850" pageHeight="1100" math="0" shadow="0">
      <root>
        <mxCell id="0" />
        <mxCell id="1" parent="0" />
        <mxCell id="YPnYqugieRIAXHoPEM4v-4" value="" style="edgeStyle=orthogonalEdgeStyle;rounded=0;orthogonalLoop=1;jettySize=auto;html=1;" edge="1" parent="1" source="YPnYqugieRIAXHoPEM4v-1" target="YPnYqugieRIAXHoPEM4v-2">
          <mxGeometry relative="1" as="geometry" />
        </mxCell>
        <mxCell id="YPnYqugieRIAXHoPEM4v-1" value="Ready&lt;br&gt;CoffeeOut &amp;lt;- 0&lt;br&gt;TeaOut &amp;lt;- 0&lt;br&gt;Change5 &amp;lt;- 0&lt;br&gt;Change10 &amp;lt;- 0&lt;br&gt;Change20 &amp;lt;- 0&lt;br&gt;&lt;div style=&quot;&quot;&gt;&lt;span style=&quot;background-color: initial;&quot;&gt;Balance &amp;lt;- 0&lt;/span&gt;&lt;/div&gt;" style="whiteSpace=wrap;html=1;aspect=fixed;align=left;" vertex="1" parent="1">
          <mxGeometry x="80" y="80" width="110" height="110" as="geometry" />
        </mxCell>
        <mxCell id="YPnYqugieRIAXHoPEM4v-5" style="edgeStyle=orthogonalEdgeStyle;rounded=0;orthogonalLoop=1;jettySize=auto;html=1;" edge="1" parent="1" source="YPnYqugieRIAXHoPEM4v-2">
          <mxGeometry relative="1" as="geometry">
            <mxPoint x="40" y="150" as="targetPoint" />
          </mxGeometry>
        </mxCell>
        <mxCell id="YPnYqugieRIAXHoPEM4v-8" style="edgeStyle=orthogonalEdgeStyle;rounded=0;orthogonalLoop=1;jettySize=auto;html=1;exitX=0.5;exitY=1;exitDx=0;exitDy=0;" edge="1" parent="1" source="YPnYqugieRIAXHoPEM4v-2">
          <mxGeometry relative="1" as="geometry">
            <mxPoint x="135" y="290" as="targetPoint" />
          </mxGeometry>
        </mxCell>
        <mxCell id="YPnYqugieRIAXHoPEM4v-2" value="reset" style="shape=hexagon;perimeter=hexagonPerimeter2;whiteSpace=wrap;html=1;fixedSize=1;" vertex="1" parent="1">
          <mxGeometry x="97.5" y="230" width="75" height="30" as="geometry" />
        </mxCell>
        <mxCell id="YPnYqugieRIAXHoPEM4v-7" value="" style="endArrow=classic;html=1;rounded=0;" edge="1" parent="1">
          <mxGeometry width="50" height="50" relative="1" as="geometry">
            <mxPoint x="40" y="150" as="sourcePoint" />
            <mxPoint x="80" y="150" as="targetPoint" />
          </mxGeometry>
        </mxCell>
        <mxCell id="YPnYqugieRIAXHoPEM4v-11" value="" style="edgeStyle=orthogonalEdgeStyle;rounded=0;orthogonalLoop=1;jettySize=auto;html=1;" edge="1" parent="1" source="YPnYqugieRIAXHoPEM4v-9" target="YPnYqugieRIAXHoPEM4v-10">
          <mxGeometry relative="1" as="geometry" />
        </mxCell>
        <mxCell id="YPnYqugieRIAXHoPEM4v-9" value="P5 &amp;lt;- P5&lt;br&gt;P10 &amp;lt;- P10&lt;br&gt;P20 &amp;lt;- P20&lt;br&gt;or money &amp;lt;- P5+P10+P20&lt;br&gt;Pcoffee &amp;lt;- Pcoffee&lt;br&gt;Ptea &amp;lt;- Ptea&lt;br&gt;&lt;div style=&quot;&quot;&gt;&lt;span style=&quot;background-color: initial;&quot;&gt;Pchange &amp;lt;- Pchange&lt;/span&gt;&lt;/div&gt;&lt;div style=&quot;&quot;&gt;&lt;span style=&quot;background-color: initial;&quot;&gt;Pnext &amp;lt;- Pnext&lt;/span&gt;&lt;/div&gt;&lt;div style=&quot;&quot;&gt;reset &amp;lt;- reset&lt;/div&gt;" style="whiteSpace=wrap;html=1;aspect=fixed;align=left;" vertex="1" parent="1">
          <mxGeometry x="60" y="290" width="150" height="150" as="geometry" />
        </mxCell>
        <mxCell id="YPnYqugieRIAXHoPEM4v-10" value="" style="whiteSpace=wrap;html=1;align=left;" vertex="1" parent="1">
          <mxGeometry x="75" y="480" width="120" height="60" as="geometry" />
        </mxCell>
      </root>
    </mxGraphModel>
  </diagram>
</mxfile>
